<svg id="Camada_1" data-name="Camada 1" xmlns="http://www.w3.org/2000/svg" viewBox="0 0 250 106"><defs><style>.cls-1{fill:#e02041;}.cls-2{fill:#41414d;}</style></defs><title>Logo</title><path class="cls-1" d="M93.93,94.3H76.87L87.12,59.4H78.45L64.21,106H47.14L75.35,11.63H92.42L82.78,44.74h8.67L105.14,0h17.07Z"/><path class="cls-1" d="M123.58,11.63h32.55L151.24,26.5H136.45l-5.37,18.17H146l-4.68,14.66H126.75L121,78.54h15.82l-5.71,15.69H99.23Z"/><path class="cls-1" d="M151.31,106h-17.2l27.45-94.37H192.8c3.71,0,6.19,1,7.5,3.17a8.6,8.6,0,0,1,.69,7.29l-8.26,28.09a7.66,7.66,0,0,1-2.34,3.37,7.24,7.24,0,0,1-4.95,1.51,4.83,4.83,0,0,1,3.3,2.48q1.33,2.18,0,6.61L179.87,94.3H162.73l9.5-32.42A3.2,3.2,0,0,0,172.3,60c-.21-.62-.83-.89-1.86-.89h-5.71Zm22.84-59.13a4.66,4.66,0,0,0,2.34-.62,4.32,4.32,0,0,0,1.66-2.54l4.54-15.35c.68-2.27-.21-3.44-2.62-3.44h-5.36l-6.47,21.95Z"/><path class="cls-1" d="M243,11.63a6.44,6.44,0,0,1,5.85,2.89,7.73,7.73,0,0,1,.82,6.54l-19,64.5c-1,3.44-2.82,5.71-5.3,7a17.57,17.57,0,0,1-8,1.79H197a10.82,10.82,0,0,1-4-.76,7.48,7.48,0,0,1-3-2.2,7.61,7.61,0,0,1-1.58-3.58,9.67,9.67,0,0,1,.41-4.75l18.65-63.32a10.45,10.45,0,0,1,3.71-5.85,11.09,11.09,0,0,1,7-2.21ZM225.07,24.92a2.48,2.48,0,0,0-1.79.55,3.83,3.83,0,0,0-.83,1.44L207.25,78.4c-.41,1.38.14,2.06,1.58,2.06h4.41A2.62,2.62,0,0,0,216,78.4L231.12,27c.35-1.44-.2-2.13-1.72-2.13h-4.33Z"/><path class="cls-2" d="M31.44,20.65H42.52c1.45,0,2.34.41,2.75,1.17a3.67,3.67,0,0,1,.21,2.75l-2.62,9a2.59,2.59,0,0,1-1,1.45,3.59,3.59,0,0,1-2.41.62,2,2,0,0,1,1.24.34,1.59,1.59,0,0,1,.69.83,2.77,2.77,0,0,1,.21,1.1A6,6,0,0,1,41.42,39l-2.48,8.19a4.4,4.4,0,0,1-1.51,2.27,5,5,0,0,1-3.1.83H22.7Zm1.1,24.78a2.45,2.45,0,0,0,.76-.14,1.57,1.57,0,0,0,.55-.82l1.79-6a1.16,1.16,0,0,0,0-1c-.14-.27-.41-.34-.83-.34H32.89L30.41,45.5h2.13Zm3.38-12.25a1.8,1.8,0,0,0,1-.21,1.58,1.58,0,0,0,.55-.89L39,26.71a1.4,1.4,0,0,0,.07-.9,1,1,0,0,0-.83-.34h-2L34,33.18Z"/><path class="cls-2" d="M48.78,20.65h11.7L58.9,26H53.39l-1.93,6.54h5.37l-1.58,5.3H49.88l-2.06,6.88h5.71l-2.07,5.64H40Z"/><path class="cls-2" d="M19,55.55l-1.58,5.37h-4.2L6.12,85.21H0L7.22,60.85H3l1.58-5.37H19Z"/><path class="cls-2" d="M27.31,85.21H21.19l3.65-12.52h-3.1L18,85.21H11.9l8.74-29.66h6.12l-3.44,11.9h3.1l3.51-11.9h6.12Z"/><path class="cls-2" d="M38,55.55h11.7l-1.59,5.37h-5.5l-1.93,6.53H46l-1.58,5.3H39.08L37,79.64h5.71l-2.07,5.64H29.24Z"/></svg>